<svg id="Capa_1" enable-background="new 0 0 512 512" height="512" viewBox="0 0 512 512" width="512" xmlns="http://www.w3.org/2000/svg" xmlns:xlink="http://www.w3.org/1999/xlink"><linearGradient id="SVGID_1_" gradientUnits="userSpaceOnUse" x1="177.606" x2="423.805" y1="334.395" y2="88.195"><stop offset="0" stop-color="#ffbef9"/><stop offset="1" stop-color="#fff1ff"/></linearGradient><linearGradient id="SVGID_2_" gradientUnits="userSpaceOnUse" x1="13.194" x2="463.588" y1="498.805" y2="48.412"><stop offset="0" stop-color="#a93aff"/><stop offset="1" stop-color="#ff81ff"/></linearGradient><g><g><g><path d="m405.037 146.411c5.581-6.46 9.243-14.355 10.518-22.939 3.044-20.3-7.722-36.715-23.555-48.237v-.235c0-24.814-20.186-45-45-45s-45 20.186-45 45v.22c-18.516 13.96-30 35.991-30 59.78 0 22.266 7.192 37.749 16.963 48.589-5.581 6.46-9.243 14.355-10.518 22.939-3.044 20.3 7.722 36.715 23.555 48.237v.235c0 24.814 20.186 45 45 45s45-20.186 45-45v-.22c18.516-13.96 30-35.991 30-59.78 0-22.266-7.192-37.749-16.963-48.589zm-174.653 113.994-52.778 52.778c-5.859 5.859-5.859 15.352 0 21.211 5.86 5.859 15.352 5.859 21.211 0l52.778-52.778c5.859-5.859 5.859-15.352 0-21.211s-15.352-5.859-21.211 0z" fill="url(#SVGID_1_)"/></g></g><g><g><path d="m167 300c-12.231 0-23.657 4.819-32.183 13.55l-121.253 121.253c-8.745 8.54-13.564 19.966-13.564 32.197 0 24.814 20.186 45 45 45 12.231 0 23.657-4.819 32.197-13.564l121.253-121.253c8.731-8.526 13.55-19.952 13.55-32.183 0-24.814-20.186-45-45-45zm180-300c-90.901 0-165 74.099-165 165 0 90.899 74.099 165 165 165s165-74.101 165-165c0-90.901-74.099-165-165-165zm15 237.299v17.701c0 8.399-6.599 15-15 15s-15-6.601-15-15v-18.001c-8.101-3-15.601-7.799-21-15-5.1-6.599-3.6-15.899 3.001-20.999 6.599-4.801 16.199-3.602 20.999 2.999 3.001 3.9 7.202 6 12.001 6 8.401 0 15-6.601 15-15 0-9.9-1.8-11.4-18.6-15.3-15.3-3.9-41.4-10.201-41.4-44.7 0-19.501 12.599-36 30-42.301v-17.698c0-8.401 6.599-15 15-15s15 6.599 15 15v17.999c8.101 3.001 15.601 7.8 21 15 5.099 6.601 3.6 15.901-3.001 21-6.599 5.1-15.899 3.6-20.999-2.999-7.8-10.501-27.001-3.9-27.001 9 0 9.899 1.8 11.4 18.6 15.3 15.3 3.9 41.4 10.199 41.4 44.7 0 19.499-12.599 36-30 42.299z" fill="url(#SVGID_2_)"/></g></g></g></svg>